<svg id="abab7084-fff1-4627-90c7-72c1746d52f6" data-name="FORMES" xmlns="http://www.w3.org/2000/svg" width="1214.78741" height="1574.93994" viewBox="0 0 1214.78741 1574.93994"><title>logo lightquery v2</title><g id="b9ff2730-fc26-4c9d-a8d6-f12fe491ec64" data-name="forme A"><g id="78ebf2b2-5c33-48a1-9eac-a11eb552ae33" data-name="&lt;Groupe&gt;"><path d="M2811.54923,818.23859c-37.11741-120.70626-201.399-249.9014-275.16771-293.57667-6.09176-3.92829-18.04283-10.95183-34.55409-20.6728-102.63011-60.35272-375.23449-220.73972-373.57-308.623l-1.66446-.03332L2124.96181,195c-20.33958,99.53445-16.67787,257.75758,30.09346,354.92823,70.43942,146.3387,209.28807,225.73349,343.57654,302.53124,131.59186,75.26658,267.42587,153.09688,344.4906,294.24229l2.8776,5.6923v-6.49121c0-6.92439.418-14.74684,0.55087-23.43565C2847.71591,1055.5229,2849.865,943.43839,2811.54923,818.23859Zm31.92412,304.19529c-0.09956,6.12548-.19952,11.85111-0.23284,17.111-78.02943-138.4496-212.684-215.44728-342.97756-289.94827C2360.28217,769.50292,2228.058,693.90353,2158.051,548.497c-44.74034-92.9766-49.7337-242.378-31.95744-341.71256,19.474,91.47835,275.23435,241.94526,374.06945,300.06788,16.47794,9.72015,28.429,16.74451,34.42121,20.63907l0.89887-1.39788-0.83223,1.4312c73.40219,43.44242,236.88485,171.90489,273.7361,291.679C2846.53609,943.9049,2844.63838,1055.65618,2843.47335,1122.43388Z" transform="translate(-1632.25 -195)" style="fill:#09c6d6"/><path d="M2843.47335,1122.43388c-0.09956,6.12548-.19952,11.85111-0.23284,17.111-78.02943-138.4496-212.684-215.44728-342.97756-289.94827C2360.28217,769.50292,2228.058,693.90353,2158.051,548.497c-44.74034-92.9766-49.7337-242.378-31.95744-341.71256,19.474,91.47835,275.23435,241.94526,374.06945,300.06788,16.47794,9.72015,28.429,16.74451,34.42121,20.63907l0.89887-1.39788-0.83223,1.4312c73.40219,43.44242,236.88485,171.90489,273.7361,291.679C2846.53609,943.9049,2844.63838,1055.65618,2843.47335,1122.43388Z" transform="translate(-1632.25 -195)" style="fill:#09c6d6"/></g></g><g id="b604a7c9-d74f-4ddb-a98b-e759760ee317" data-name="forme B"><path d="M2829.15928,1444.273c-1.931-7.49-4.02785-16.04516-6.35833-25.46623-17.87622-72.90278-47.8364-194.90777-125.10024-319.6752-74.73424-120.20644-289.64838-213.283-382.09224-239.54814-7.69-2.49668-22.63674-6.72446-43.30913-12.51673-128.52952-36.11858-469.9751-132.09087-493.31078-227.99692l-1.63113.39945-1.66445.1c6.42457,113.68231,55.55929,284.12228,134.02149,376.0334,118.11,138.48252,291.27951,184.8544,458.7567,229.728,164.182,44.00848,333.98967,89.5144,457.89155,220.50688l4.42771,4.69387Zm-459.82258-222.138c-174.66774-46.80425-339.64825-91.01225-457.09224-228.66295-75.33322-88.316-123.50243-249.60151-132.42368-362.45119,45.4726,93.84174,367.44455,184.35457,491.57969,219.24147,20.67239,5.82559,35.58584,10.02,43.20917,12.51673l0.49942-1.59781-0.43277,1.59781c46.00575,13.08279,122.504,42.74348,196.77174,84.08827,74.26774,41.34519,146.3391,94.30824,183.42279,153.99535,76.99808,124.33507,106.85829,246.03976,124.70079,318.743q2.54666,10.43657,4.79384,19.37448C2700.23071,1310.78379,2532.05418,1265.74356,2369.3367,1222.13494Z" transform="translate(-1632.25 -195)" style="fill:#0087b3"/><path d="M2824.36544,1438.9801c-124.13473-128.19631-292.31126-173.23654-455.02874-216.84516-174.66774-46.80425-339.64825-91.01225-457.09224-228.66295-75.33322-88.316-123.50243-249.60151-132.42368-362.45119,45.4726,93.84174,367.44455,184.35457,491.57969,219.24147,20.67239,5.82559,35.58584,10.02,43.20917,12.51673l0.49942-1.59781-0.43277,1.59781c46.00575,13.08279,122.504,42.74348,196.77174,84.08827,74.26774,41.34519,146.3391,94.30824,183.42279,153.99535,76.99808,124.33507,106.85829,246.03976,124.70079,318.743Q2822.11827,1430.04219,2824.36544,1438.9801Z" transform="translate(-1632.25 -195)" style="fill:#0087b3"/></g><g id="6d04bcc8-e961-4844-97c4-4a340566b7fa" data-name="forme C"><path d="M2804.55819,1764.01439c-3.129-7.09019-6.55785-15.17961-10.35245-24.10127-29.39452-69.10818-78.56257-184.72111-174.86767-295.44065-93.04284-106.62464-320.17421-163.94875-415.61457-175.00055-7.98906-1.265-23.43524-3.02942-44.77366-5.42614-132.65693-15.01341-485.08848-54.86035-523.53753-145.73972l-1.53117.6327-1.63113.36613c24.60068,111.18563,100.49956,271.506,192.71057,349.63538C1963.80922,1586.5838,2142.172,1604.56,2314.67628,1621.97011c169.10872,17.01067,344.00972,34.65365,487.35231,144.04194l5.15956,3.92788Zm-489.5491-145.37318c-179.92727-18.14239-349.8349-35.25344-487.88465-152.26425-88.58262-75.03373-162.01813-226.49908-188.94889-336.453,59.987,85.35367,392.27849,122.93678,520.40815,137.41745,21.33842,2.43,36.75128,4.16114,44.6741,5.39282l0.23284-1.63113-0.1662,1.82962C2298.33163,1283.95115,2524.39753,1341,2616.84139,1447h-0.03332c96.00561,110,145.04078,225.46836,174.33493,294.377,2.79617,6.59117,5.39282,12.63367,7.82286,18.25974C2655.8561,1653.07835,2482.61956,1635.519,2315.00909,1618.6412Z" transform="translate(-1632.25 -195)" style="fill:#006181"/><path d="M2798.96585,1759.55417c-143.10975-106.5584-316.34629-124.03517-483.95676-140.913-179.92727-18.14239-349.8349-35.25344-487.88465-152.26425-88.58262-75.03373-162.01813-226.49908-188.94889-336.453,59.987,85.35367,392.27849,122.93678,520.40815,137.41745,21.33842,2.43,36.75128,4.16114,44.6741,5.39282l0.23284-1.63113-0.1662,1.82962C2298.33163,1283.95115,2524.39753,1341,2616.84139,1447h-0.03332c96.00561,110,145.04078,225.46836,174.33493,294.377C2793.93917,1747.96819,2796.53581,1753.9281,2798.96585,1759.55417Z" transform="translate(-1632.25 -195)" style="fill:#006181"/></g></svg>